<svg width="14" height="17" viewBox="0 0 14 17" fill="none" xmlns="http://www.w3.org/2000/svg">
<path opacity="0.5" d="M6.66815 0C2.98566 0 0 3.33657 0 7.08491C0 10.8041 2.12797 14.8466 5.44871 16.3986C5.83039 16.5774 6.24669 16.67 6.66815 16.67C7.0896 16.67 7.5059 16.5774 7.88758 16.3986C11.2083 14.8466 13.3363 10.8041 13.3363 7.08491C13.3363 3.33657 10.3506 0 6.66815 0Z" fill="#00B4D6"/>
<path d="M6.66815 8.75182C7.2208 8.75182 7.75082 8.53228 8.14161 8.14149C8.5324 7.7507 8.75194 7.22068 8.75194 6.66802C8.75194 6.11537 8.5324 5.58535 8.14161 5.19456C7.75082 4.80377 7.2208 4.58423 6.66815 4.58423C6.11549 4.58423 5.58547 4.80377 5.19468 5.19456C4.80389 5.58535 4.58435 6.11537 4.58435 6.66802C4.58435 7.22068 4.80389 7.7507 5.19468 8.14149C5.58547 8.53228 6.11549 8.75182 6.66815 8.75182Z" fill="#00B4D6"/>
</svg>
