<svg width="27" height="27" viewBox="0 0 27 27" fill="none" xmlns="http://www.w3.org/2000/svg">
<path opacity="0.5" d="M13.3333 26.6667C20.6973 26.6667 26.6667 20.6973 26.6667 13.3333C26.6667 5.96933 20.6973 0 13.3333 0C5.96933 0 0 5.96933 0 13.3333C0 20.6973 5.96933 26.6667 13.3333 26.6667Z" fill="#333333"/>
<path d="M11.3333 8.33325C11.0681 8.33325 10.8138 8.43861 10.6262 8.62615C10.4387 8.81368 10.3333 9.06804 10.3333 9.33325C10.3333 9.59847 10.4387 9.85282 10.6262 10.0404C10.8138 10.2279 11.0681 10.3333 11.3333 10.3333H14.92L8.62666 16.6266C8.52841 16.7181 8.44961 16.8285 8.39495 16.9512C8.34029 17.0739 8.3109 17.2063 8.30854 17.3406C8.30617 17.4748 8.33087 17.6082 8.38116 17.7327C8.43146 17.8572 8.50632 17.9703 8.60127 18.0653C8.69623 18.1603 8.80934 18.2351 8.93386 18.2854C9.05838 18.3357 9.19175 18.3604 9.32602 18.358C9.46029 18.3557 9.59271 18.3263 9.71538 18.2716C9.83804 18.217 9.94844 18.1382 10.04 18.0399L16.3333 11.7466V15.3333C16.3333 15.5985 16.4387 15.8528 16.6262 16.0404C16.8138 16.2279 17.0681 16.3333 17.3333 16.3333C17.5985 16.3333 17.8529 16.2279 18.0404 16.0404C18.228 15.8528 18.3333 15.5985 18.3333 15.3333V9.33325C18.3333 9.06804 18.228 8.81368 18.0404 8.62615C17.8529 8.43861 17.5985 8.33325 17.3333 8.33325H11.3333Z" fill="#333333"/>
</svg>
