<svg width="18" height="18" viewBox="0 0 18 18" fill="none" xmlns="http://www.w3.org/2000/svg">
<path opacity="0.5" d="M9 18C13.9707 18 18 13.9707 18 9C18 4.0293 13.9707 0 9 0C4.0293 0 0 4.0293 0 9C0 13.9707 4.0293 18 9 18Z" fill="white"/>
<path d="M7.64987 5.625C7.47085 5.625 7.29916 5.69612 7.17257 5.8227C7.04599 5.94929 6.97487 6.12098 6.97487 6.3C6.97487 6.47902 7.04599 6.65071 7.17257 6.7773C7.29916 6.90388 7.47085 6.975 7.64987 6.975H10.0709L5.82287 11.223C5.75655 11.2848 5.70336 11.3593 5.66647 11.4421C5.62957 11.5249 5.60974 11.6143 5.60814 11.7049C5.60654 11.7956 5.62321 11.8856 5.65716 11.9696C5.69111 12.0537 5.74164 12.13 5.80574 12.1941C5.86983 12.2582 5.94618 12.3088 6.03023 12.3427C6.11428 12.3767 6.20431 12.3933 6.29494 12.3917C6.38557 12.3901 6.47495 12.3703 6.55775 12.3334C6.64055 12.2965 6.71507 12.2433 6.77687 12.177L11.0249 7.929V10.35C11.0249 10.529 11.096 10.7007 11.2226 10.8273C11.3492 10.9539 11.5208 11.025 11.6999 11.025C11.8789 11.025 12.0506 10.9539 12.1772 10.8273C12.3038 10.7007 12.3749 10.529 12.3749 10.35V6.3C12.3749 6.12098 12.3038 5.94929 12.1772 5.8227C12.0506 5.69612 11.8789 5.625 11.6999 5.625H7.64987Z" fill="white"/>
</svg>
