<svg width="17" height="16" viewBox="0 0 17 16" fill="none" xmlns="http://www.w3.org/2000/svg">
<path fill-rule="evenodd" clip-rule="evenodd" d="M11.3892 10.6909L11.8184 10.2646C12.4113 9.6754 13.3346 9.55399 14.0932 9.96623L15.8909 10.9441C17.0457 11.5719 17.3008 13.1107 16.3982 14.0077L15.0617 15.3367C14.721 15.6755 14.2993 15.9221 13.8137 15.9673C12.6918 16.0717 10.3831 16.0153 7.65926 14.4209L11.3892 10.6909ZM5.82677 5.16052L6.09689 4.89134C6.76231 4.23063 6.82537 3.16896 6.24465 2.39342L5.05875 0.809403C4.33969 -0.15061 2.95143 -0.27767 2.12789 0.541165L0.650226 2.00942C0.242691 2.41601 -0.0302536 2.9412 0.00268803 3.52473C0.0638653 4.59769 0.429047 6.55536 2.0253 8.96104L5.82677 5.16052Z" fill="white"/>
<path opacity="0.6" d="M7.58964 8.93842C4.8169 6.18168 5.8202 5.16613 5.82679 5.15955L2.02533 8.96195C2.6531 9.9069 3.47005 10.9206 4.53266 11.9775C5.60561 13.0448 6.65974 13.8364 7.65929 14.4208L11.3892 10.6919C11.3892 10.6919 10.3709 11.7046 7.58964 8.93936" fill="white"/>
</svg>
