<svg width="16" height="16" viewBox="0 0 16 16" fill="none" xmlns="http://www.w3.org/2000/svg">
<path opacity="0.5" fill-rule="evenodd" clip-rule="evenodd" d="M16 8C16 12.4184 12.4184 16 8 16C3.5816 16 0 12.4184 0 8C0 3.5816 3.5816 0 8 0C12.4184 0 16 3.5816 16 8Z" fill="#00B4D6"/>
<path d="M8.6 3.19985C8.6 3.04072 8.53679 2.88811 8.42426 2.77559C8.31174 2.66307 8.15913 2.59985 8 2.59985C7.84087 2.59985 7.68826 2.66307 7.57574 2.77559C7.46321 2.88811 7.4 3.04072 7.4 3.19985V3.45345C6.096 3.68705 5 4.66705 5 5.99985C5 7.53345 6.4504 8.59985 8 8.59985C9.1016 8.59985 9.8 9.32465 9.8 9.99985C9.8 10.6751 9.1016 11.3999 8 11.3999C6.8992 11.3999 6.2 10.6751 6.2 9.99985C6.2 9.84072 6.13679 9.68811 6.02426 9.57559C5.91174 9.46307 5.75913 9.39985 5.6 9.39985C5.44087 9.39985 5.28826 9.46307 5.17574 9.57559C5.06321 9.68811 5 9.84072 5 9.99985C5 11.3327 6.096 12.3127 7.4 12.5463V12.7999C7.4 12.959 7.46321 13.1116 7.57574 13.2241C7.68826 13.3366 7.84087 13.3999 8 13.3999C8.15913 13.3999 8.31174 13.3366 8.42426 13.2241C8.53679 13.1116 8.6 12.959 8.6 12.7999V12.5463C9.904 12.3127 11 11.3327 11 9.99985C11 8.46625 9.5496 7.39985 8 7.39985C6.8992 7.39985 6.2 6.67505 6.2 5.99985C6.2 5.32465 6.8992 4.59985 8 4.59985C9.1016 4.59985 9.8 5.32465 9.8 5.99985C9.8 6.15898 9.86321 6.3116 9.97574 6.42412C10.0883 6.53664 10.2409 6.59985 10.4 6.59985C10.5591 6.59985 10.7117 6.53664 10.8243 6.42412C10.9368 6.3116 11 6.15898 11 5.99985C11 4.66705 9.904 3.68705 8.6 3.45345V3.19985Z" fill="#00B4D6"/>
</svg>
