<svg width="58" height="50" viewBox="0 0 58 50" fill="none" xmlns="http://www.w3.org/2000/svg">
<path d="M25.3875 44.9399L15.4653 31.3373L29.4496 7.19357L50.861 44.931L25.3875 44.9399Z" fill="#00B5D6"/>
<path d="M28.8467 8.85141L52.0885 48.8047C52.4543 49.4331 53.1303 49.82 53.8612 49.82H56.8095C57.4889 49.82 57.9139 49.0904 57.5737 48.5062L29.6109 0.438138C29.2717 -0.146046 28.4217 -0.146046 28.0824 0.438138L18.7586 16.4662L35.3276 44.9484H25.3697L14.544 26.3387C14.2038 25.7545 13.3547 25.7545 13.0154 26.3387L0.119609 48.5062C-0.220544 49.0904 0.204431 49.82 0.88388 49.82H3.83216C4.56302 49.82 5.23904 49.4331 5.60404 48.8047L13.7797 34.7519L22.5406 49.8115H43.816L24.417 16.4662L28.8467 8.85141Z" fill="#004F60"/>
</svg>
