<svg width="45" height="45" viewBox="0 0 45 45" fill="none" xmlns="http://www.w3.org/2000/svg">
<path opacity="0.5" d="M22.4997 45C34.9265 45 44.9997 34.9267 44.9997 22.5C44.9997 10.0732 34.9265 0 22.4997 0C10.073 0 -0.000244141 10.0732 -0.000244141 22.5C-0.000244141 26.1 0.845755 29.502 2.3465 32.5192C2.747 33.3202 2.87975 34.236 2.648 35.1022L1.30926 40.1107C1.17666 40.6064 1.17678 41.1282 1.3096 41.6238C1.44242 42.1194 1.70327 42.5713 2.06596 42.9342C2.42865 43.2972 2.88043 43.5583 3.37594 43.6914C3.87145 43.8246 4.39326 43.825 4.889 43.6927L9.8975 42.3517C10.7669 42.1329 11.6863 42.2394 12.4827 42.651C15.5943 44.2004 19.0237 45.0046 22.4997 45Z" fill="#F1615B"/>
<path d="M24.1875 13.5C24.1875 13.0524 24.0097 12.6232 23.6932 12.3068C23.3768 11.9903 22.9475 11.8125 22.5 11.8125C22.0524 11.8125 21.6232 11.9903 21.3068 12.3068C20.9903 12.6232 20.8125 13.0524 20.8125 13.5V13.5225C18.3622 14.1412 16.3125 16.0717 16.3125 18.7492C16.3125 22.0275 19.3837 24.1875 22.5 24.1875C24.354 24.1875 25.3125 25.3867 25.3125 26.2507C25.3125 27.1147 24.354 28.3117 22.5 28.3117C20.646 28.3117 19.6875 27.1147 19.6875 26.2507C19.6875 25.8032 19.5097 25.374 19.1932 25.0575C18.8768 24.741 18.4476 24.5632 18 24.5632C17.5524 24.5632 17.1232 24.741 16.8068 25.0575C16.4903 25.374 16.3125 25.8032 16.3125 26.2507C16.3125 28.9282 18.3622 30.861 20.8125 31.4775V31.5C20.8125 31.9475 20.9903 32.3768 21.3068 32.6932C21.6232 33.0097 22.0524 33.1875 22.5 33.1875C22.9475 33.1875 23.3768 33.0097 23.6932 32.6932C24.0097 32.3768 24.1875 31.9475 24.1875 31.5V31.4775C26.6377 30.861 28.6875 28.9282 28.6875 26.2507C28.6875 22.9725 25.6162 20.8125 22.5 20.8125C20.646 20.8125 19.6875 19.6132 19.6875 18.7492C19.6875 17.8852 20.646 16.6882 22.5 16.6882C24.354 16.6882 25.3125 17.8852 25.3125 18.7492C25.3125 19.1968 25.4903 19.626 25.8068 19.9425C26.1232 20.259 26.5524 20.4367 27 20.4367C27.4475 20.4367 27.8768 20.259 28.1932 19.9425C28.5097 19.626 28.6875 19.1968 28.6875 18.7492C28.6875 16.0717 26.6377 14.1412 24.1875 13.5225V13.5Z" fill="#F1615B"/>
</svg>
