<svg width="20" height="20" viewBox="0 0 20 20" fill="none" xmlns="http://www.w3.org/2000/svg">
<path opacity="0.5" d="M0 8.91589C0 6.12074 1.94214 3.85571 4.3373 3.85571C6.73245 3.85571 8.67459 6.12074 8.67459 8.91589V17.3495H2.15226C0.963843 17.3495 0 16.2257 0 14.8387V8.91589Z" fill="#00B4D6"/>
<path opacity="0.8" d="M8.67458 8.91589V17.3495H17.1496C18.3246 17.3495 19.2769 16.2382 19.2769 14.8676V8.91589C19.2769 6.12074 17.3347 3.85571 14.9396 3.85571H4.33728C6.73243 3.85571 8.67458 6.12074 8.67458 8.91589Z" fill="#00B4D6"/>
<path d="M7.22888 17.3494V19.2771C7.22888 19.4688 7.30504 19.6526 7.44061 19.7882C7.57618 19.9238 7.76004 19.9999 7.95176 19.9999C8.14348 19.9999 8.32735 19.9238 8.46292 19.7882C8.59849 19.6526 8.67465 19.4688 8.67465 19.2771V17.3494H7.22888ZM12.53 17.3494H11.0843V19.2771C11.0843 19.4688 11.1604 19.6526 11.296 19.7882C11.4315 19.9238 11.6154 19.9999 11.8071 19.9999C11.9989 19.9999 12.1827 19.9238 12.3183 19.7882C12.4539 19.6526 12.53 19.4688 12.53 19.2771V17.3494Z" fill="#00B4D6"/>
<path fill-rule="evenodd" clip-rule="evenodd" d="M2.1687 13.4941C2.1687 13.3023 2.24486 13.1185 2.38043 12.9829C2.516 12.8473 2.69986 12.7712 2.89158 12.7712H5.78311C5.97483 12.7712 6.1587 12.8473 6.29427 12.9829C6.42984 13.1185 6.506 13.3023 6.506 13.4941C6.506 13.6858 6.42984 13.8696 6.29427 14.0052C6.1587 14.1408 5.97483 14.2169 5.78311 14.2169H2.89158C2.69986 14.2169 2.516 14.1408 2.38043 14.0052C2.24486 13.8696 2.1687 13.6858 2.1687 13.4941ZM14.8288 4.41947L15.0755 4.36935C15.4762 4.28936 15.8915 4.32788 16.2707 4.48019C16.9357 4.74718 17.6644 4.79634 18.3574 4.62284L18.4162 4.60839C18.9213 4.48212 19.2769 4.01273 19.2769 3.47298V1.41999C19.2769 0.708676 18.6369 0.184345 17.9709 0.35109C17.5892 0.447474 17.1883 0.419523 16.821 0.273019L16.7507 0.244103C16.1391 -0.00145253 15.4692 -0.0634168 14.823 0.0657925L14.3902 0.152538C13.8698 0.256633 13.4939 0.730844 13.4939 1.28024V7.98184C13.4939 8.36448 13.7927 8.67484 14.1608 8.67484C14.2503 8.67321 14.3385 8.65396 14.4205 8.61819C14.5025 8.58242 14.5767 8.53082 14.6387 8.46637C14.7008 8.40191 14.7495 8.32585 14.7821 8.24255C14.8147 8.15924 14.8306 8.07032 14.8288 7.98087V4.41947Z" fill="#00B4D6"/>
</svg>
