<svg width="18" height="18" viewBox="0 0 18 18" fill="none" xmlns="http://www.w3.org/2000/svg">
<path fill-rule="evenodd" clip-rule="evenodd" d="M13.4995 0H4.49951C2.02474 0 -0.000488281 2.02432 -0.000488281 4.5V13.5C-0.000488281 15.9748 2.02474 18 4.49951 18H13.4995C15.9743 18 17.9995 15.9748 17.9995 13.5V4.5C17.9995 2.02432 15.9743 0 13.4995 0ZM8.99959 12.7499C6.92824 12.7499 5.24951 11.0705 5.24951 9.00001C5.24951 6.92866 6.92824 5.24994 8.99959 5.24994C11.07 5.24994 12.7497 6.92866 12.7497 9.00001C12.7497 11.0705 11.07 12.7499 8.99959 12.7499ZM12.7495 4.12494C12.7495 4.74616 13.2526 5.24994 13.8745 5.24994C14.4964 5.24994 14.9995 4.74616 14.9995 4.12494C14.9995 3.50371 14.4964 2.99994 13.8745 2.99994C13.2526 2.99994 12.7495 3.50371 12.7495 4.12494Z" fill="#00B4D6"/>
</svg>
