<svg width="16" height="16" viewBox="0 0 16 16" fill="none" xmlns="http://www.w3.org/2000/svg">
<path opacity="0.5" fill-rule="evenodd" clip-rule="evenodd" d="M16 8C16 12.4184 12.4184 16 8 16C3.5816 16 0 12.4184 0 8C0 3.5816 3.5816 0 8 0C12.4184 0 16 3.5816 16 8Z" fill="white"/>
<path d="M8.6 3.19995C8.6 3.04082 8.53679 2.88821 8.42426 2.77569C8.31174 2.66317 8.15913 2.59995 8 2.59995C7.84087 2.59995 7.68826 2.66317 7.57574 2.77569C7.46321 2.88821 7.4 3.04082 7.4 3.19995V3.45355C6.096 3.68715 5 4.66715 5 5.99995C5 7.53355 6.4504 8.59995 8 8.59995C9.1016 8.59995 9.8 9.32475 9.8 9.99995C9.8 10.6752 9.1016 11.4 8 11.4C6.8992 11.4 6.2 10.6752 6.2 9.99995C6.2 9.84082 6.13679 9.68821 6.02426 9.57569C5.91174 9.46317 5.75913 9.39995 5.6 9.39995C5.44087 9.39995 5.28826 9.46317 5.17574 9.57569C5.06321 9.68821 5 9.84082 5 9.99995C5 11.3328 6.096 12.3128 7.4 12.5464V12.8C7.4 12.9591 7.46321 13.1117 7.57574 13.2242C7.68826 13.3367 7.84087 13.4 8 13.4C8.15913 13.4 8.31174 13.3367 8.42426 13.2242C8.53679 13.1117 8.6 12.9591 8.6 12.8V12.5464C9.904 12.3128 11 11.3328 11 9.99995C11 8.46635 9.5496 7.39995 8 7.39995C6.8992 7.39995 6.2 6.67515 6.2 5.99995C6.2 5.32475 6.8992 4.59995 8 4.59995C9.1016 4.59995 9.8 5.32475 9.8 5.99995C9.8 6.15908 9.86321 6.31169 9.97574 6.42422C10.0883 6.53674 10.2409 6.59995 10.4 6.59995C10.5591 6.59995 10.7117 6.53674 10.8243 6.42422C10.9368 6.31169 11 6.15908 11 5.99995C11 4.66715 9.904 3.68715 8.6 3.45355V3.19995Z" fill="white"/>
</svg>
