<svg width="36" height="36" viewBox="0 0 36 36" fill="none" xmlns="http://www.w3.org/2000/svg">
<path opacity="0.5" d="M20.5446 33.3005L19.587 34.9188C18.7337 36.3604 16.6014 36.3604 15.7463 34.9188L14.7888 33.3005C14.0468 32.0462 13.6758 31.4173 13.0786 31.071C12.4815 30.723 11.7307 30.7106 10.229 30.6841C8.01006 30.647 6.6197 30.511 5.4537 30.0269C4.38198 29.583 3.40819 28.9323 2.58793 28.1121C1.76768 27.2918 1.11702 26.318 0.6731 25.2463C5.26507e-08 23.6245 0 21.5663 0 17.45V15.6833C0 9.90105 0 7.00902 1.30203 4.88548C2.02997 3.69687 3.02886 2.69738 4.21703 1.96872C6.34233 0.666687 9.23613 0.666687 15.0167 0.666687H20.3167C26.099 0.666687 28.991 0.666687 31.1163 1.96872C32.3043 2.69688 33.3031 3.69574 34.0313 4.88372C35.3333 7.00902 35.3333 9.90281 35.3333 15.6833V17.45C35.3333 21.5663 35.3333 23.6245 34.662 25.2463C34.2179 26.3182 33.5669 27.2921 32.7464 28.1123C31.9258 28.9326 30.9517 29.5832 29.8796 30.0269C28.7136 30.511 27.3232 30.6452 25.1043 30.6841C23.6027 30.7106 22.8518 30.723 22.2547 31.071C21.6576 31.4173 21.2866 32.0444 20.5446 33.3005Z" fill="#F1615B"/>
<path d="M15.8823 22.4108C13.5379 20.683 9.71661 17.3935 9.71661 14.2965C9.71661 9.56717 14.0891 7.80051 17.6666 11.454C21.2441 7.80051 25.6166 9.56717 25.6166 14.2965C25.6166 17.3917 21.7953 20.683 19.4509 22.4108C18.6489 23.0027 18.2478 23.2977 17.6666 23.2977C17.0854 23.2977 16.6843 23.0027 15.8823 22.4108Z" fill="#F1615B"/>
</svg>
