<svg width="219" height="50" viewBox="0 0 219 50" fill="none" xmlns="http://www.w3.org/2000/svg">
<g clip-path="url(#clip0_15_2)">
<path d="M25.3875 44.9399L15.4653 31.3373L29.4496 7.19357L50.861 44.931L25.3875 44.9399Z" fill="#00B5D6"/>
<path d="M28.8467 8.85141L52.0885 48.8047C52.4543 49.4331 53.1303 49.82 53.8612 49.82H56.8095C57.4889 49.82 57.9139 49.0904 57.5737 48.5062L29.6109 0.438138C29.2717 -0.146046 28.4217 -0.146046 28.0824 0.438138L18.7586 16.4662L35.3276 44.9484H25.3697L14.544 26.3387C14.2038 25.7545 13.3547 25.7545 13.0154 26.3387L0.119609 48.5062C-0.220544 49.0904 0.204431 49.82 0.88388 49.82H3.83216C4.56302 49.82 5.23904 49.4331 5.60404 48.8047L13.7797 34.7519L22.5406 49.8115H43.816L24.417 16.4662L28.8467 8.85141Z" fill="#004F60"/>
<path d="M66.9194 27.7995L65.2461 24.1949H65.2246L63.5736 27.7995H66.9194ZM57.8715 32.4747L64.762 17.7714C64.8279 17.6405 64.9822 17.5308 65.1364 17.5308H65.3566C65.5108 17.5308 65.6642 17.6405 65.731 17.7714L72.6215 32.4747C72.7534 32.7587 72.5769 33.0427 72.247 33.0427H69.8034C69.4067 33.0427 69.2311 32.9117 69.0332 32.4968L68.2406 30.7706H62.2524L61.4598 32.5189C61.3502 32.7808 61.1077 33.0427 60.6673 33.0427H58.2459C57.9152 33.0427 57.7396 32.7587 57.8715 32.4747Z" fill="#004F60"/>
<path d="M75.4633 17.9241C75.4633 17.7056 75.6612 17.5312 75.8814 17.5312H76.4323L85.2154 25.9207H85.2377V18.1648C85.2377 17.9462 85.4134 17.7489 85.6558 17.7489H88.2974C88.5176 17.7489 88.7155 17.9462 88.7155 18.1648V32.868C88.7155 33.0865 88.5176 33.2617 88.2974 33.2617H87.9452C87.8793 33.2617 87.7028 33.1962 87.6591 33.152L78.9633 24.4785H78.9419V32.6282C78.9419 32.8467 78.7654 33.0432 78.5229 33.0432H75.9037C75.6835 33.0432 75.4855 32.8467 75.4855 32.6282L75.4633 17.9241Z" fill="#004F60"/>
<path d="M93.5399 17.9241C93.5399 17.7056 93.7378 17.5312 93.958 17.5312H94.509L103.292 25.9207H103.314V18.1648C103.314 17.9462 103.49 17.7489 103.733 17.7489H106.374C106.594 17.7489 106.792 17.9462 106.792 18.1648V32.868C106.792 33.0865 106.594 33.2617 106.374 33.2617H106.022C105.956 33.2617 105.779 33.1962 105.736 33.152L97.04 24.4785H97.0186V32.6282C97.0186 32.8467 96.8421 33.0432 96.5996 33.0432H93.9803C93.7601 33.0432 93.5622 32.8467 93.5622 32.6282L93.5399 17.9241Z" fill="#004F60"/>
<path d="M111.352 18.1645C111.352 17.9459 111.55 17.7495 111.77 17.7495H114.478C114.72 17.7495 114.897 17.9459 114.897 18.1645V27.0131C114.897 28.542 116.042 29.7657 117.604 29.7657C119.19 29.7657 120.357 28.542 120.357 27.0131V18.1645C120.357 17.9459 120.532 17.7495 120.775 17.7495H123.482C123.702 17.7495 123.9 17.9459 123.9 18.1645V27.1874C123.9 30.5089 121.082 33.2614 117.604 33.2614C114.148 33.2614 111.352 30.5089 111.352 27.1874V18.1645Z" fill="#004F60"/>
<path d="M128.504 18.1645C128.504 17.9459 128.702 17.7495 128.922 17.7495H131.564C131.784 17.7495 131.982 17.9459 131.982 18.1645V32.6279C131.982 32.8465 131.784 33.0429 131.564 33.0429H128.922C128.702 33.0429 128.504 32.8465 128.504 32.6279V18.1645Z" fill="#004F60"/>
<path d="M138.808 20.961H135.66C135.417 20.961 135.242 20.7646 135.242 20.546V18.1642C135.242 17.9457 135.417 17.7493 135.66 17.7493H145.434C145.676 17.7493 145.852 17.9457 145.852 18.1642V20.546C145.852 20.7646 145.676 20.961 145.434 20.961H142.286V32.6277C142.286 32.8462 142.088 33.0426 141.867 33.0426H139.226C139.006 33.0426 138.808 32.8462 138.808 32.6277V20.961Z" fill="#004F60"/>
<path d="M152.701 25.6802L147.836 18.3825C147.659 18.0985 147.836 17.749 148.188 17.749H151.05C151.226 17.749 151.336 17.8587 151.402 17.9463L154.461 22.425L157.522 17.9463C157.588 17.8587 157.676 17.749 157.874 17.749H160.736C161.088 17.749 161.265 18.0985 161.088 18.3825L156.157 25.658V32.6274C156.157 32.846 155.959 33.0433 155.739 33.0433H153.119C152.877 33.0433 152.701 32.846 152.701 32.6274V25.6802Z" fill="#004F60"/>
<path d="M163.138 29.1104C164.282 29.1104 165.251 30.0721 165.251 31.2081C165.251 32.3221 164.282 33.2617 163.138 33.2617C162.015 33.2617 161.068 32.3221 161.068 31.2081C161.068 30.0721 162.015 29.1104 163.138 29.1104Z" fill="#004F60"/>
<path d="M175.07 17.5308C177.271 17.5308 178.901 18.2076 180.397 19.5622C180.595 19.7374 180.595 19.9993 180.419 20.1745L178.702 21.944C178.548 22.0971 178.306 22.0971 178.152 21.944C177.337 21.2229 176.258 20.8301 175.179 20.8301C172.692 20.8301 170.865 22.8837 170.865 25.3309C170.865 27.7553 172.714 29.7655 175.202 29.7655C176.237 29.7655 177.359 29.3939 178.152 28.717C178.306 28.586 178.592 28.586 178.724 28.7391L180.441 30.552C180.595 30.7051 180.573 30.9891 180.419 31.1422C178.922 32.5843 177.029 33.2612 175.07 33.2612C170.667 33.2612 167.123 29.7876 167.123 25.4177C167.123 21.0486 170.667 17.5308 175.07 17.5308Z" fill="#004F60"/>
<path d="M190.834 29.7657C193.255 29.7657 195.237 27.7997 195.237 25.4179C195.237 23.0149 193.255 21.0268 190.834 21.0268C188.434 21.0268 186.453 23.0149 186.453 25.4179C186.453 27.7997 188.434 29.7657 190.834 29.7657ZM190.834 17.531C195.237 17.531 198.759 21.048 198.759 25.4179C198.759 29.7878 195.237 33.2615 190.834 33.2615C186.431 33.2615 182.931 29.7878 182.931 25.4179C182.931 21.048 186.431 17.531 190.834 17.531Z" fill="#004F60"/>
<path d="M204.002 17.8805C204.025 17.6841 204.223 17.531 204.398 17.531H204.751C204.861 17.531 205.059 17.6186 205.125 17.7495L210.232 27.1875H210.277L215.383 17.7495C215.45 17.6186 215.648 17.531 215.758 17.531H216.11C216.287 17.531 216.484 17.6841 216.507 17.8805L218.994 32.5625C219.039 32.8465 218.84 33.0429 218.576 33.0429H215.978C215.78 33.0429 215.582 32.8686 215.56 32.6934L214.57 25.9426H214.525L210.827 33.0208C210.761 33.1526 210.563 33.2615 210.453 33.2615H210.057C209.924 33.2615 209.748 33.1526 209.682 33.0208L205.962 25.9426H205.917L204.949 32.6934C204.927 32.8686 204.751 33.0429 204.531 33.0429H201.933C201.669 33.0429 201.471 32.8465 201.515 32.5625L204.002 17.8805Z" fill="#004F60"/>
</g>
<defs>
<clipPath id="clip0_15_2">
<rect width="219" height="50" fill="white"/>
</clipPath>
</defs>
</svg>
