<svg width="39" height="45" viewBox="0 0 39 45" fill="none" xmlns="http://www.w3.org/2000/svg">
<path opacity="0.5" d="M2.8308 12.8428C4.44391 11.0125 6.76886 10.5007 10.638 10.3575L13.5083 10.3055C14.2565 10.3011 15.0545 10.3011 15.8964 10.3011H23.5506C24.3944 10.3011 25.1905 10.3011 25.9387 10.3055L28.809 10.3575C32.6781 10.5007 35.0031 11.0125 36.6162 12.8428C38.8589 15.3824 38.8589 19.4725 38.8589 27.6505C38.8589 35.8286 38.8589 39.9187 36.6162 42.4583C34.3754 44.9999 30.7665 44.9999 23.5506 44.9999H15.8964C8.68048 44.9999 5.07155 44.9999 2.8308 42.4583C0.588135 39.9187 0.588135 35.8286 0.588135 27.6505C0.588135 19.4725 0.588135 15.3824 2.8308 12.8428Z" fill="#F1615B"/>
<path d="M21.1589 18.9759C21.1589 18.5445 21.0077 18.1308 20.7386 17.8258C20.4694 17.5208 20.1044 17.3494 19.7238 17.3494C19.3432 17.3494 18.9781 17.5208 18.709 17.8258C18.4398 18.1308 18.2886 18.5445 18.2886 18.9759V18.9976C16.2048 19.5918 14.4616 21.4547 14.4616 24.0354C14.4616 27.1952 17.0735 29.2771 19.7238 29.2771C21.3005 29.2771 22.1157 30.433 22.1157 31.2658C22.1157 32.0985 21.3005 33.2523 19.7238 33.2523C18.147 33.2523 17.3319 32.0985 17.3319 31.2658C17.3319 30.8344 17.1807 30.4207 16.9115 30.1157C16.6424 29.8106 16.2773 29.6393 15.8967 29.6393C15.5161 29.6393 15.151 29.8106 14.8819 30.1157C14.6128 30.4207 14.4616 30.8344 14.4616 31.2658C14.4616 33.8465 16.2048 35.7072 18.2886 36.3036V36.3253C18.2886 36.7567 18.4398 37.1704 18.709 37.4754C18.9781 37.7804 19.3432 37.9518 19.7238 37.9518C20.1044 37.9518 20.4694 37.7804 20.7386 37.4754C21.0077 37.1704 21.1589 36.7567 21.1589 36.3253V36.3036C23.2428 35.7094 24.986 33.8465 24.986 31.2658C24.986 28.106 22.374 26.0241 19.7238 26.0241C18.147 26.0241 17.3319 24.8682 17.3319 24.0354C17.3319 23.2026 18.147 22.0489 19.7238 22.0489C21.3005 22.0489 22.1157 23.2026 22.1157 24.0354C22.1157 24.4668 22.2669 24.8805 22.536 25.1855C22.8052 25.4906 23.1702 25.6619 23.5508 25.6619C23.9315 25.6619 24.2965 25.4906 24.5657 25.1855C24.8348 24.8805 24.986 24.4668 24.986 24.0354C24.986 21.4547 23.2428 19.5918 21.1589 18.9976V18.9759ZM19.8233 0H19.6243C17.9059 0 16.4708 9.69473e-08 15.3341 0.173494C14.1324 0.355663 13.0474 0.759036 12.1768 1.74578C11.3042 2.7347 10.9483 3.96434 10.7876 5.3241C10.6785 6.25012 10.6479 8.46 10.6383 10.3554L13.5086 10.3055C13.5182 8.46867 13.5469 6.49301 13.633 5.75783C13.7516 4.75807 13.9564 4.32867 14.2071 4.04675C14.4558 3.76482 14.8328 3.53277 15.7168 3.39614C16.6411 3.25735 17.8791 3.25301 19.7238 3.25301C21.5684 3.25301 22.8084 3.25735 23.7326 3.39831C24.6148 3.53277 24.9937 3.76482 25.2424 4.04892C25.4912 4.33084 25.6978 4.75807 25.8165 5.75783C25.9026 6.49518 25.9313 8.46867 25.9389 10.3055L28.8092 10.3576C28.8016 8.46 28.771 6.25012 28.66 5.32626C28.4993 3.96434 28.1433 2.7347 27.2727 1.74795C26.4001 0.759036 25.3151 0.355663 24.1153 0.173494C22.9768 9.69473e-08 21.5436 0 19.8233 0Z" fill="#F1615B"/>
</svg>
