<svg width="18" height="18" viewBox="0 0 18 18" fill="none" xmlns="http://www.w3.org/2000/svg">
<path opacity="0.5" fill-rule="evenodd" clip-rule="evenodd" d="M18 9C18 13.9707 13.9707 18 9 18C4.0293 18 0 13.9707 0 9C0 4.0293 4.0293 0 9 0C13.9707 0 18 4.0293 18 9Z" fill="white"/>
<path d="M9.675 3.60005C9.675 3.42103 9.60388 3.24934 9.4773 3.12275C9.35071 2.99616 9.17902 2.92505 9 2.92505C8.82098 2.92505 8.64929 2.99616 8.5227 3.12275C8.39612 3.24934 8.325 3.42103 8.325 3.60005V3.88535C6.858 4.14815 5.625 5.25065 5.625 6.75005C5.625 8.47535 7.2567 9.67505 9 9.67505C10.2393 9.67505 11.025 10.4904 11.025 11.25C11.025 12.0096 10.2393 12.825 9 12.825C7.7616 12.825 6.975 12.0096 6.975 11.25C6.975 11.071 6.90388 10.8993 6.7773 10.7728C6.65071 10.6462 6.47902 10.575 6.3 10.575C6.12098 10.575 5.94929 10.6462 5.8227 10.7728C5.69612 10.8993 5.625 11.071 5.625 11.25C5.625 12.7494 6.858 13.8519 8.325 14.1147V14.4C8.325 14.5791 8.39612 14.7508 8.5227 14.8773C8.64929 15.0039 8.82098 15.075 9 15.075C9.17902 15.075 9.35071 15.0039 9.4773 14.8773C9.60388 14.7508 9.675 14.5791 9.675 14.4V14.1147C11.142 13.8519 12.375 12.7494 12.375 11.25C12.375 9.52475 10.7433 8.32505 9 8.32505C7.7616 8.32505 6.975 7.50965 6.975 6.75005C6.975 5.99045 7.7616 5.17505 9 5.17505C10.2393 5.17505 11.025 5.99045 11.025 6.75005C11.025 6.92907 11.0961 7.10076 11.2227 7.22735C11.3493 7.35393 11.521 7.42505 11.7 7.42505C11.879 7.42505 12.0507 7.35393 12.1773 7.22735C12.3039 7.10076 12.375 6.92907 12.375 6.75005C12.375 5.25065 11.142 4.14815 9.675 3.88535V3.60005Z" fill="white"/>
</svg>
