<svg width="40" height="45" viewBox="0 0 40 45" fill="none" xmlns="http://www.w3.org/2000/svg">
<path opacity="0.5" d="M39.8427 31.4986V17.9973C39.8427 11.6336 39.8427 8.45182 37.9286 6.47387C36.2562 4.7457 33.6909 4.52743 28.9545 4.50043H11.5334C6.79709 4.52743 4.23183 4.7457 2.55941 6.47387C0.645264 8.45182 0.645264 11.6336 0.645264 17.9973V31.4986C0.645264 37.8645 0.645264 41.0463 2.55941 43.0243C4.47137 45 7.55273 45 13.7111 45H26.7769C32.9353 45 36.0166 45 37.9286 43.0243C39.8427 41.0441 39.8427 37.8645 39.8427 31.4986Z" fill="#F1615B"/>
<path d="M11.5333 3.37534C11.5333 2.48014 11.8775 1.62161 12.49 0.988614C13.1026 0.355615 13.9335 0 14.7998 0H25.688C26.5543 0 27.3851 0.355615 27.9977 0.988614C28.6103 1.62161 28.9544 2.48014 28.9544 3.37534V5.62556C28.9544 6.52076 28.6103 7.37929 27.9977 8.01229C27.3851 8.64529 26.5543 9.0009 25.688 9.0009H14.7998C13.9335 9.0009 13.1026 8.64529 12.49 8.01229C11.8775 7.37929 11.5333 6.52076 11.5333 5.62556V3.37534ZM13.711 24.0707C13.711 26.2849 16.2479 28.6251 18.1599 30.0765C19.0745 30.7696 19.5318 31.1161 20.2439 31.1161C20.9581 31.1161 21.4133 30.7696 22.3279 30.0765C24.2398 28.6251 26.7768 26.2849 26.7768 24.0684C26.7768 20.306 23.1837 18.8996 20.2439 21.8069C17.3041 18.8996 13.711 20.3038 13.711 24.0707Z" fill="#F1615B"/>
</svg>
