<svg width="16" height="16" viewBox="0 0 16 16" fill="none" xmlns="http://www.w3.org/2000/svg">
<path opacity="0.5" fill-rule="evenodd" clip-rule="evenodd" d="M6.4 16H9.6C12.6168 16 14.1256 16 15.0624 15.0624C16 14.1256 16 12.6168 16 9.6V9.2504C16 8.552 16 8.0272 15.9656 7.6H12.724C11.8464 7.6 11.0704 7.6 10.4456 7.516C9.768 7.4248 9.0904 7.216 8.5376 6.6632C7.984 6.1096 7.7752 5.432 7.684 4.7544C7.6 4.1296 7.6 3.3544 7.6 2.476L7.608 0.2088C7.608 0.1424 7.6136 0.0776 7.624 0.0136C7.2968 -3.27826e-08 6.9088 0 6.424 0C3.3912 0 1.8744 -9.53674e-08 0.9376 0.9376C-9.53674e-08 1.8744 0 3.3832 0 6.4V9.6C0 12.6168 -9.53674e-08 14.1256 0.9376 15.0624C1.8744 16 3.3832 16 6.4 16Z" fill="white"/>
<path d="M5.61042 13.6375C5.49921 13.7418 5.35248 13.7998 5.20002 13.7998C5.04757 13.7998 4.90084 13.7418 4.78962 13.6375L3.18962 12.1375C3.07627 12.028 3.01055 11.8783 3.00665 11.7208C3.00276 11.5632 3.06101 11.4105 3.16882 11.2955C3.27663 11.1806 3.42534 11.1126 3.58282 11.1064C3.7403 11.1002 3.89389 11.1562 4.01042 11.2623L4.60002 11.8143V9.19991C4.60002 9.04078 4.66324 8.88816 4.77576 8.77564C4.88828 8.66312 5.04089 8.59991 5.20002 8.59991C5.35915 8.59991 5.51177 8.66312 5.62429 8.77564C5.73681 8.88816 5.80002 9.04078 5.80002 9.19991V11.8151L6.38962 11.2623C6.50616 11.1562 6.65975 11.1002 6.81723 11.1064C6.97471 11.1126 7.12342 11.1806 7.23123 11.2955C7.33904 11.4105 7.39729 11.5632 7.3934 11.7208C7.3895 11.8783 7.32378 12.028 7.21042 12.1375L5.61042 13.6375ZM7.60802 0.207906L7.60002 2.47591C7.60002 3.35351 7.60002 4.12871 7.68402 4.75431C7.77522 5.43191 7.98402 6.10951 8.53762 6.66231C9.08962 7.21511 9.76802 7.42471 10.4456 7.51591C11.0704 7.59991 11.8464 7.59991 12.724 7.59991H15.9656C15.976 7.72391 15.9832 7.85671 15.988 7.99991H16C16 7.78551 16 7.67831 15.992 7.55191C15.9304 6.79171 15.6657 6.06202 15.2256 5.43911C15.1504 5.33671 15.0992 5.27591 14.9976 5.15351C14.3632 4.39511 13.528 3.44951 12.8 2.79991C12.152 2.22071 11.2632 1.58791 10.488 1.07111C9.82242 0.626306 9.48962 0.403906 9.03282 0.239106C8.89995 0.191557 8.76486 0.150443 8.62802 0.115906C8.32082 0.0399061 8.02162 0.0135063 7.60002 0.00390625L7.60802 0.207906Z" fill="white"/>
</svg>
