<svg width="40" height="45" viewBox="0 0 40 45" fill="none" xmlns="http://www.w3.org/2000/svg">
<path opacity="0.5" d="M0.986084 22.5C0.986084 11.8935 0.986084 6.59025 3.76975 3.294C6.55721 0 11.0369 0 20.0002 0C28.9634 0 33.445 0 36.2287 3.294C39.0143 6.5925 39.0143 11.8935 39.0143 22.5C39.0143 33.1065 39.0143 38.4097 36.2287 41.7038C33.4469 45 28.9634 45 20.0002 45C11.0369 45 6.55531 45 3.76975 41.7038C0.986084 38.412 0.986084 33.1065 0.986084 22.5Z" fill="#F1615B"/>
<path d="M11.5008 16.8075C11.2304 16.5094 10.8729 16.3472 10.5034 16.3549C10.134 16.3626 9.7815 16.5397 9.52022 16.8489C9.25894 17.1581 9.10928 17.5752 9.10276 18.0123C9.09624 18.4495 9.23338 18.8726 9.48528 19.1925L13.8452 24.3518C14.4692 25.0896 15.3152 25.5041 16.1972 25.5041C17.0793 25.5041 17.9253 25.0896 18.5493 24.3518L21.5649 20.7833C21.6091 20.7309 21.6615 20.6893 21.7193 20.661C21.777 20.6326 21.8389 20.618 21.9015 20.618C21.964 20.618 22.0259 20.6326 22.0837 20.661C22.1414 20.6893 22.1939 20.7309 22.238 20.7833L26.0637 25.3125H24.7536C24.3754 25.3125 24.0127 25.4903 23.7452 25.8068C23.4778 26.1232 23.3275 26.5525 23.3275 27C23.3275 27.4476 23.4778 27.8768 23.7452 28.1933C24.0127 28.5097 24.3754 28.6875 24.7536 28.6875H29.5071C29.8853 28.6875 30.248 28.5097 30.5155 28.1933C30.7829 27.8768 30.9332 27.4476 30.9332 27V21.375C30.9332 20.9275 30.7829 20.4982 30.5155 20.1818C30.248 19.8653 29.8853 19.6875 29.5071 19.6875C29.1289 19.6875 28.7662 19.8653 28.4987 20.1818C28.2313 20.4982 28.0811 20.9275 28.0811 21.375V22.9275L24.2535 18.3983C23.6296 17.6604 22.7836 17.246 21.9015 17.246C21.0194 17.246 20.1734 17.6604 19.5494 18.3983L16.5338 21.9668C16.4896 22.0192 16.4372 22.0607 16.3794 22.0891C16.3217 22.1174 16.2598 22.132 16.1972 22.132C16.1347 22.132 16.0728 22.1174 16.0151 22.0891C15.9573 22.0607 15.9049 22.0192 15.8607 21.9668L11.5008 16.8075Z" fill="#F1615B"/>
</svg>
