<svg width="27" height="27" viewBox="0 0 27 27" fill="none" xmlns="http://www.w3.org/2000/svg">
<path d="M9.53765 4.544C11.227 1.51467 12.071 0 13.3336 0C14.5963 0 15.4403 1.51467 17.1296 4.544L17.567 5.328C18.047 6.18933 18.287 6.62 18.6603 6.904C19.0336 7.188 19.5003 7.29333 20.4336 7.504L21.2816 7.696C24.5616 8.43867 26.2003 8.80933 26.591 10.064C26.9803 11.3173 25.863 12.6253 23.627 15.24L23.0483 15.916C22.4136 16.6587 22.095 17.0307 21.9523 17.4893C21.8096 17.9493 21.8576 18.4453 21.9536 19.436L22.0416 20.3387C22.379 23.828 22.5483 25.572 21.527 26.3467C20.5056 27.1227 18.9696 26.4147 15.9003 25.0013L15.1043 24.636C14.2323 24.2333 13.7963 24.0333 13.3336 24.0333C12.871 24.0333 12.435 24.2333 11.563 24.636L10.7683 25.0013C7.69765 26.4147 6.16165 27.1213 5.14165 26.348C4.11898 25.572 4.28831 23.828 4.62565 20.3387L4.71365 19.4373C4.80965 18.4453 4.85765 17.9493 4.71365 17.4907C4.57231 17.0307 4.25365 16.6587 3.61898 15.9173L3.04031 15.24C0.804314 12.6267 -0.31302 11.3187 0.0763133 10.064C0.46698 8.80933 2.10698 8.43733 5.38698 7.696L6.23498 7.504C7.16698 7.29333 7.63231 7.188 8.00698 6.904C8.38031 6.62 8.62031 6.18933 9.10031 5.328L9.53765 4.544Z" fill="#F1615B"/>
</svg>
