<svg width="20" height="16" viewBox="0 0 20 16" fill="none" xmlns="http://www.w3.org/2000/svg">
<path d="M17.6326 3.99704C17.6456 4.17204 17.6456 4.34604 17.6456 4.52004C17.6456 9.84504 13.5926 15.981 6.18563 15.981C3.90363 15.981 1.78363 15.32 -0.000366211 14.172C0.323634 14.209 0.635634 14.222 0.972634 14.222C2.85563 14.222 4.58863 13.586 5.97363 12.501C4.20263 12.464 2.71863 11.304 2.20663 9.70804C2.45563 9.74504 2.70563 9.77004 2.96763 9.77004C3.32863 9.77004 3.69163 9.72004 4.02863 9.63304C2.18163 9.25904 0.798634 7.63804 0.798634 5.68004V5.63004C1.33563 5.92904 1.95863 6.11604 2.61863 6.14104C1.53363 5.41904 0.822634 4.18404 0.822634 2.78704C0.822634 2.03904 1.02163 1.35304 1.37063 0.755043C3.35363 3.19804 6.33463 4.79504 9.67663 4.97004C9.61463 4.67004 9.57663 4.35904 9.57663 4.04704C9.57663 1.82704 11.3726 0.019043 13.6046 0.019043C14.7646 0.019043 15.8116 0.505043 16.5476 1.29104C17.4576 1.11604 18.3296 0.779043 19.1036 0.318043C18.8046 1.25304 18.1676 2.03904 17.3326 2.53804C18.1436 2.45004 18.9296 2.22604 19.6516 1.91404C19.1036 2.71204 18.4186 3.42304 17.6326 3.99704Z" fill="#00B4D6"/>
</svg>
